Coordinates
version=1
nRows=9
nColumns=53
inDegrees=yes

Units are S.I. units (second, meters, Newtons, ...)
If the header above contains a line with 'inDegrees', this indicates whether rotational values are in degrees (yes) or radians (no).

endheader
time	pelvis_tilt	pelvis_list	pelvis_rot	pelvis_tx	pelvis_ty	pelvis_tz	hip_flex_r	hip_add_r	hip_rot_r	pf_flex_r	pf_rot_r	pf_tilt_r	pf_tx_r	pf_ty_r	pf_tz_r	knee_flex_r	knee_add_r	knee_rot_r	knee_tx_r	knee_ty_r	knee_tz_r	ankle_flex_r	subt_angle_r	mtp_angle_r	hip_flex_l	hip_add_l	hip_rot_l	pf_l_r3	pf_l_tx	pf_l_ty	knee_flex_l	ankle_flex_l	subt_angle_l	mtp_angle_l	lumbar_ext	lumbar_latbend	lumbar_rot	neck_ext	neck_latbend	neck_rot	arm_add_r	arm_flex_r	arm_rot_r	elbow_flex_r	pro_sup_r	wrist_flex_r	arm_add_l	arm_flex_l	arm_rot_l	elbow_flex_l	pro_sup_l	wrist_flex_l
      7.58800000	     -3.79191564	      4.49315398	     -1.02027398	      0.85191680	      0.90715621	      0.19530779	     24.07269476	     -7.43879579	      2.10362024	     36.36835595	      0.91420373	     -0.76769836	      0.02604911	     -0.03053663	      0.00567446	     61.40119193	      2.85334006	     -3.77341888	      0.00377522	     -0.00403157	     -0.00257966	      8.77338708	     -4.70688670	      0.00000000	     14.37543431	     -8.15284216	      6.57632538	      0.06513700	      0.04435000	     -0.41871200	      0.30553664	      0.08828854	     -0.17350516	      0.00000000	     -7.05093455	     -3.41905544	      2.62394582	      0.00000000	      0.00000000	      0.00000000	      0.00000000	      0.00000000	      0.00000000	      0.00000000	     60.00000000	      0.00000000	      0.00000000	      0.00000000	      0.00000000	      0.00000000	     60.00000000	      0.00000000
      7.59200000	     -3.73601159	      4.51709542	     -0.89919625	      0.85556941	      0.90710821	      0.19499341	     24.49932424	     -7.41161657	      2.10507293	     36.26980515	      0.93553182	     -0.76046942	      0.02615498	     -0.03050892	      0.00567740	     61.24730247	      2.84635944	     -3.76577318	      0.00377745	     -0.00400491	     -0.00258405	      8.81863255	     -4.71881556	      0.00000000	     14.00752835	     -8.16104344	      6.56971692	      0.06513700	      0.04435000	     -0.41871200	      0.30819474	      0.08839169	     -0.17331782	      0.00000000	     -7.05273824	     -3.41879730	      2.61779163	      0.00000000	      0.00000000	      0.00000000	      0.00000000	      0.00000000	      0.00000000	      0.00000000	     60.00000000	      0.00000000	      0.00000000	      0.00000000	      0.00000000	      0.00000000	     60.00000000	      0.00000000
      7.59600000	     -4.24939116	      4.72961215	     -1.18361693	      0.85981702	      0.90743117	      0.19495822	     25.30056219	     -7.67931182	      2.03315233	     35.67593826	      1.06327927	     -0.71560949	      0.02679231	     -0.03033539	      0.00569392	     60.31693994	      2.80658084	     -3.71620070	      0.00378524	     -0.00382708	     -0.00260661	      9.63853522	     -5.16174138	      0.00000000	     13.69450984	     -8.39523181	      6.02481626	      0.06513700	      0.04435000	     -0.41871200	      0.29216583	      0.10394247	     -0.16806782	      0.00000000	     -7.12268696	     -3.48662078	      2.38044608	      0.00000000	      0.00000000	      0.00000000	      0.00000000	      0.00000000	      0.00000000	      0.00000000	     60.00000000	      0.00000000	      0.00000000	      0.00000000	      0.00000000	      0.00000000	     60.00000000	      0.00000000
      7.60000000	     -4.05103716	      4.69455955	     -0.98885712	      0.86206649	      0.90721267	      0.19437503	     25.70496660	     -7.55350348	      2.01051098	     35.59081536	      1.08137199	     -0.70919075	      0.02688336	     -0.03030976	      0.00569606	     60.18326178	      2.80116534	     -3.70858419	      0.00378464	     -0.00380211	     -0.00261009	      9.68000933	     -5.17855917	      0.00000000	     13.46800925	     -8.55183821	      6.04172964	      0.06513700	      0.04435000	     -0.41871200	      0.29286132	      0.10395939	     -0.16738841	      0.00000000	     -7.09517793	     -3.49124380	      2.36128191	      0.00000000	      0.00000000	      0.00000000	      0.00000000	      0.00000000	      0.00000000	      0.00000000	     60.00000000	      0.00000000	      0.00000000	      0.00000000	      0.00000000	      0.00000000	     60.00000000	      0.00000000
      7.60400000	     -3.95466067	      4.69270276	     -0.86771111	      0.86557932	      0.90686408	      0.19406013	     26.11871428	     -7.49699658	      1.98902527	     35.49320535	      1.10208827	     -0.70164462	      0.02698779	     -0.03027973	      0.00569843	     60.02972535	      2.79512637	     -3.69968834	      0.00378212	     -0.00377642	     -0.00261452	      9.70785780	     -5.18831538	      0.00000000	     13.14249755	     -8.61177814	      6.04804371	      0.06513700	      0.04435000	     -0.41871200	      0.29520600	      0.10365582	     -0.16704070	      0.00000000	     -7.09083156	     -3.49299810	      2.35360895	      0.00000000	      0.00000000	      0.00000000	      0.00000000	      0.00000000	      0.00000000	      0.00000000	     60.00000000	      0.00000000	      0.00000000	      0.00000000	      0.00000000	      0.00000000	     60.00000000	      0.00000000
      7.60800000	     -4.30007425	      4.81421269	     -0.98566503	      0.86920584	      0.90695346	      0.19347734	     26.74784218	     -7.77071226	      1.63228791	     34.88673022	      1.22958110	     -0.65438996	      0.02763521	     -0.03008765	      0.00571181	     59.07409015	      2.75948485	     -3.64102388	      0.00377599	     -0.00358319	     -0.00262748	      9.96211841	     -5.54812210	      0.00000000	     12.92181980	     -8.90194548	      5.79096763	      0.06513700	      0.04435000	     -0.41871200	      0.28137894	      0.10209869	     -0.15685762	      0.00000000	     -7.08341953	     -3.55371748	      2.13437448	      0.00000000	      0.00000000	      0.00000000	      0.00000000	      0.00000000	      0.00000000	      0.00000000	     60.00000000	      0.00000000	      0.00000000	      0.00000000	      0.00000000	      0.00000000	     60.00000000	      0.00000000
      7.61200000	     -4.17505913	      4.82792276	     -0.83895562	      0.87239189	      0.90664761	      0.19337148	     27.15520975	     -7.72958304	      1.62942185	     34.79311256	      1.24910204	     -0.64696173	      0.02773507	     -0.03005703	      0.00571368	     58.92612775	      2.75430631	     -3.63141230	      0.00377305	     -0.00355599	     -0.00263016	      9.97767387	     -5.55273296	      0.00000000	     12.61612176	     -8.91964709	      5.79717795	      0.06513700	      0.04435000	     -0.41871200	      0.28352170	      0.10193851	     -0.15662387	      0.00000000	     -7.07556248	     -3.55502728	      2.12830252	      0.00000000	      0.00000000	      0.00000000	      0.00000000	      0.00000000	      0.00000000	      0.00000000	     60.00000000	      0.00000000	      0.00000000	      0.00000000	      0.00000000	      0.00000000	     60.00000000	      0.00000000
      7.61600000	     -4.03435450	      4.84398312	     -0.69911183	      0.87522359	      0.90651611	      0.19318736	     27.58665645	     -7.69053591	      1.61827167	     34.68350934	      1.27185573	     -0.63823694	      0.02785185	     -0.03002073	      0.00571576	     58.75269858	      2.74834067	     -3.61997185	      0.00376924	     -0.00352324	     -0.00263204	      9.99419375	     -5.55859888	      0.00000000	     12.31060451	     -8.94555970	      5.80534352	      0.06513700	      0.04435000	     -0.41871200	      0.28556594	      0.10189914	     -0.15640611	      0.00000000	     -7.07062556	     -3.55711255	      2.12199702	      0.00000000	      0.00000000	      0.00000000	      0.00000000	      0.00000000	      0.00000000	      0.00000000	     60.00000000	      0.00000000	      0.00000000	      0.00000000	      0.00000000	      0.00000000	     60.00000000	      0.00000000
      7.62000000	     -3.89994457	      4.87375085	     -0.55853490	      0.87798369	      0.90639434	      0.19303389	     28.03797046	     -7.66973588	      1.60891039	     34.55841833	      1.29774280	     -0.62822415	      0.02798507	     -0.02997884	      0.00571804	     58.55457918	      2.74164659	     -3.60668396	      0.00376458	     -0.00348523	     -0.00263378	     10.01049775	     -5.56609682	      0.00000000	     11.98793929	     -8.95095531	      5.81596984	      0.06513700	      0.04435000	     -0.41871200	      0.28761931	      0.10203617	     -0.15629100	      0.00000000	     -7.06917461	     -3.55990733	      2.11531266	      0.00000000	      0.00000000	      0.00000000	      0.00000000	      0.00000000	      0.00000000	      0.00000000	     60.00000000	      0.00000000	      0.00000000	      0.00000000	      0.00000000	      0.00000000	     60.00000000	      0.00000000
